<svg id="Filled" height="512" viewBox="0 0 512 512" width="512" xmlns="http://www.w3.org/2000/svg"><rect fill="#e9eef2" height="464" rx="16" width="288" x="112" y="24"/><path d="m400 200v272a16 16 0 0 1 -16 16h-256a16 16 0 0 1 -16-16v-272l32 32h56c0 17.67 25.07 32 56 32s56-14.33 56-32h56z" fill="#d0d2d4"/><rect fill="#b1bd70" height="80" rx="16" width="224" x="144" y="56"/><ellipse cx="256" cy="208" fill="#d0d2d4" rx="32" ry="24"/><ellipse cx="168" cy="184" fill="#d0d2d4" rx="24" ry="16"/><ellipse cx="344" cy="184" fill="#d0d2d4" rx="24" ry="16"/><g fill="#7e8589"><path d="m144 280v208h-16a16 16 0 0 1 -16-16v-224z"/><path d="m400 248v224a16 16 0 0 1 -16 16h-16v-208z"/><path d="m176 296h32v32h-32z"/><path d="m240 296h32v32h-32z"/><path d="m304 296h32v32h-32z"/><path d="m176 360h32v32h-32z"/><path d="m240 360h32v32h-32z"/><path d="m304 360h32v32h-32z"/><path d="m176 424h32v32h-32z"/><path d="m240 424h32v32h-32z"/><path d="m304 424h32v32h-32z"/></g><path d="m400 328v-272a32 32 0 0 1 32 32v208a32 32 0 0 1 -32 32z" fill="#6a7073"/><path d="m112 56v272a32 32 0 0 1 -32-32v-208a32 32 0 0 1 32-32z" fill="#6a7073"/><path d="m160 144h192a24.027 24.027 0 0 0 24-24v-48a24.027 24.027 0 0 0 -24-24h-192a24.027 24.027 0 0 0 -24 24v48a24.027 24.027 0 0 0 24 24zm-8-72a8.009 8.009 0 0 1 8-8h192a8.009 8.009 0 0 1 8 8v48a8.009 8.009 0 0 1 -8 8h-192a8.009 8.009 0 0 1 -8-8z"/><path d="m256 176c-22.056 0-40 14.355-40 32s17.944 32 40 32 40-14.355 40-32-17.944-32-40-32zm0 48c-13.009 0-24-7.327-24-16s10.991-16 24-16 24 7.327 24 16-10.991 16-24 16z"/><path d="m168 208c17.944 0 32-10.542 32-24s-14.056-24-32-24-32 10.542-32 24 14.056 24 32 24zm0-32c9.767 0 16 4.738 16 8s-6.233 8-16 8-16-4.738-16-8 6.233-8 16-8z"/><path d="m344 160c-17.944 0-32 10.542-32 24s14.056 24 32 24 32-10.542 32-24-14.056-24-32-24zm0 32c-9.767 0-16-4.738-16-8s6.233-8 16-8 16 4.738 16 8-6.233 8-16 8z"/><path d="m208 288h-32a8 8 0 0 0 -8 8v32a8 8 0 0 0 8 8h32a8 8 0 0 0 8-8v-32a8 8 0 0 0 -8-8zm-8 32h-16v-16h16z"/><path d="m272 288h-32a8 8 0 0 0 -8 8v32a8 8 0 0 0 8 8h32a8 8 0 0 0 8-8v-32a8 8 0 0 0 -8-8zm-8 32h-16v-16h16z"/><path d="m336 288h-32a8 8 0 0 0 -8 8v32a8 8 0 0 0 8 8h32a8 8 0 0 0 8-8v-32a8 8 0 0 0 -8-8zm-8 32h-16v-16h16z"/><path d="m208 352h-32a8 8 0 0 0 -8 8v32a8 8 0 0 0 8 8h32a8 8 0 0 0 8-8v-32a8 8 0 0 0 -8-8zm-8 32h-16v-16h16z"/><path d="m272 352h-32a8 8 0 0 0 -8 8v32a8 8 0 0 0 8 8h32a8 8 0 0 0 8-8v-32a8 8 0 0 0 -8-8zm-8 32h-16v-16h16z"/><path d="m336 352h-32a8 8 0 0 0 -8 8v32a8 8 0 0 0 8 8h32a8 8 0 0 0 8-8v-32a8 8 0 0 0 -8-8zm-8 32h-16v-16h16z"/><path d="m208 416h-32a8 8 0 0 0 -8 8v32a8 8 0 0 0 8 8h32a8 8 0 0 0 8-8v-32a8 8 0 0 0 -8-8zm-8 32h-16v-16h16z"/><path d="m272 416h-32a8 8 0 0 0 -8 8v32a8 8 0 0 0 8 8h32a8 8 0 0 0 8-8v-32a8 8 0 0 0 -8-8zm-8 32h-16v-16h16z"/><path d="m336 416h-32a8 8 0 0 0 -8 8v32a8 8 0 0 0 8 8h32a8 8 0 0 0 8-8v-32a8 8 0 0 0 -8-8zm-8 32h-16v-16h16z"/><circle cx="336" cy="104" r="8"/><circle cx="304" cy="104" r="8"/><circle cx="272" cy="104" r="8"/><circle cx="240" cy="104" r="8"/><path d="m408 48.805v-8.805a24.028 24.028 0 0 0 -24-24h-256a24.028 24.028 0 0 0 -24 24v8.805a40.067 40.067 0 0 0 -32 39.195v208a40.067 40.067 0 0 0 32 39.2v136.8a24.028 24.028 0 0 0 24 24h256a24.028 24.028 0 0 0 24-24v-136.8a40.067 40.067 0 0 0 32-39.2v-208a40.067 40.067 0 0 0 -32-39.195zm-48 231.195v200h-208v-200a8 8 0 0 0 -2.343-5.657l-29.657-29.657v-25.372l18.344 18.343a8 8 0 0 0 5.656 2.343h49.228c5.772 18.47 31.28 32 62.772 32s57-13.53 62.772-32h49.228a8 8 0 0 0 5.656-2.343l18.344-18.343v25.372l-29.657 29.657a8 8 0 0 0 -2.343 5.657zm-232-248h256a8.009 8.009 0 0 1 8 8v156.686l-27.314 27.314h-52.686a8 8 0 0 0 -8 8c0 11.352-19.713 24-48 24s-48-12.648-48-24a8 8 0 0 0 -8-8h-52.686l-27.314-27.314v-156.686a8.009 8.009 0 0 1 8-8zm-40 264v-208a24.039 24.039 0 0 1 16-22.624v253.248a24.039 24.039 0 0 1 -16-22.624zm32 176v-204.686l16 16v196.686h-8a8.009 8.009 0 0 1 -8-8zm264 8h-8v-196.687l16-16v204.687a8.009 8.009 0 0 1 -8 8zm40-184a24.039 24.039 0 0 1 -16 22.624v-253.248a24.039 24.039 0 0 1 16 22.624z"/></svg>